<svg preserveAspectRatio="none" width="100%" height="100%" overflow="visible" style="display: block;" viewBox="0 0 33 24" fill="none" xmlns="http://www.w3.org/2000/svg">
<g id="pixel:discord" clip-path="url(#clip0_0_12)">
<path id="Vector" d="M31.5 10.5V6H30V3H28.5V1.5H25.5V0H21V1.5H12V0H7.5V1.5H4.5V3H3V6H1.5V10.5H0V21H3V22.5H6V24H9V21H7.5V19.5H10.5V21H12V22.5H21V21H22.5V19.5H25.5V21H24V24H27V22.5H30V21H33V10.5H31.5ZM12 16.5H9V15H7.5V12H9V10.5H12V12H13.5V15H12V16.5ZM25.5 15H24V16.5H21V15H19.5V12H21V10.5H24V12H25.5V15Z" fill="var(--fill-0, #FF8F00)"/>
</g>
<defs>
<clipPath id="clip0_0_12">
<rect width="33" height="24" fill="white"/>
</clipPath>
</defs>
</svg>
