<svg preserveAspectRatio="none" width="100%" height="100%" overflow="visible" style="display: block;" viewBox="0 0 24 24" fill="none" xmlns="http://www.w3.org/2000/svg">
<g id="streamline-pixel:business-product-scale" clip-path="url(#clip0_0_4)">
<path id="Vector" d="M17.715 11.43V9.1425H16.575V11.43H15.4275V13.7175H16.575V14.8575H17.715V15.9975H21.1425V14.8575H22.2825V13.7175H23.43V11.43H22.2825V9.1425H21.1425V11.43H17.715ZM20.0025 6.855H21.1425V9.1425H20.0025V6.855ZM18.855 6.855H20.0025V3.4275H21.1425V2.2875H18.855V3.4275H16.575V4.575H18.855V6.855ZM17.715 6.855H18.855V9.1425H17.715V6.855ZM9.7125 22.86V21.7125H8.5725V22.86H7.425V24H17.715V22.86H16.575V21.7125H15.4275V22.86H9.7125ZM14.2875 4.575H16.575V5.715H14.2875V4.575ZM13.14 1.14H14.2875V2.2875H13.14V1.14Z" fill="var(--fill-0, #FF8F00)"/>
<path id="Vector_2" d="M12 20.5725H9.7125V21.7125H15.4275V20.5725H13.14V6.855H14.2875V5.715H13.14V2.2875H12V6.855H9.7125V8.0025H12V20.5725ZM12 0H13.14V1.14H12V0ZM10.86 1.14H12V2.2875H10.86V1.14ZM7.425 8.0025H9.7125V9.1425H7.425V8.0025ZM2.8575 17.145V14.8575H1.7175V17.145H0.57V19.4325H1.7175V20.5725H2.8575V21.7125H6.285V20.5725H7.425V19.4325H8.5725V17.145H7.425V14.8575H6.285V17.145H2.8575Z" fill="var(--fill-0, #FF8F00)"/>
<path id="Vector_3" d="M5.145 12.57H6.285V14.8575H5.145V12.57ZM5.145 9.1425H7.425V10.29H5.145V9.1425ZM2.8575 12.57H3.9975V14.8575H2.8575V12.57ZM5.145 12.57V10.29H2.8575V11.43H3.9975V12.57H5.145Z" fill="var(--fill-0, #FF8F00)"/>
</g>
<defs>
<clipPath id="clip0_0_4">
<rect width="24" height="24" fill="white"/>
</clipPath>
</defs>
</svg>
